<svg width="156" height="30" viewBox="0 0 156 30" fill="none" xmlns="http://www.w3.org/2000/svg">
<path fill-rule="evenodd" clip-rule="evenodd" d="M13.4766 9.55609L14.1354 8.98503L15.2498 8.01914V1.53695C15.2498 0.688214 14.4558 0 13.4766 0C12.4973 0 11.7033 0.688214 11.7033 1.53695V8.01914L12.8177 8.98503L13.4766 9.55609ZM13.4766 17.5195L12.8177 18.0906L11.7033 19.0565V25.5386C11.7033 26.3874 12.4973 27.0756 13.4766 27.0756C14.4558 27.0756 15.2498 26.3874 15.2498 25.5386V19.0565L14.1354 18.0906L13.4766 17.5195ZM19.0951 11.6797H25.5904C26.4408 11.6797 27.1304 12.4721 27.1304 13.4493C27.1304 14.4266 26.4408 15.219 25.5904 15.219H19.0951L18.1269 14.1068L17.555 13.4493L18.1269 12.7918L19.0951 11.6797ZM9.57545 13.4493L9.00323 12.7918L8.03538 11.6797H1.54007C0.689607 11.6797 0 12.4721 0 13.4493C0 14.4266 0.689607 15.219 1.54007 15.219H8.03538L9.00323 14.1068L9.57545 13.4493ZM10.5755 14.3341L12.7673 16.5214L12.1914 17.0961L6.19203 23.0833C5.88931 23.3854 5.49291 23.5363 5.09616 23.5363C4.89779 23.5363 4.69976 23.4985 4.5131 23.4229C4.32644 23.3476 4.15183 23.2342 4.00029 23.0833C3.39519 22.4794 3.39519 21.4999 4.00029 20.896L9.99969 14.9088L10.5755 14.3341ZM14.3632 10.5542L16.5549 12.7415L17.1307 12.1668L23.1301 6.17958C23.7352 5.5757 23.7352 4.59651 23.1301 3.99229C22.9786 3.8414 22.804 3.72798 22.6173 3.65271C22.431 3.5771 22.2326 3.53929 22.0343 3.53929C21.6375 3.53929 21.2411 3.69018 20.9384 3.99229L14.939 9.9795L14.3632 10.5542ZM13.2106 11.0343L15.3644 13.1839L16.8874 14.7038L22.7831 20.5877C23.3781 21.1815 23.3781 22.1438 22.7831 22.7372C22.4859 23.0341 22.096 23.1824 21.7062 23.1824C21.3166 23.1824 20.9267 23.0341 20.6292 22.7372L14.7336 16.8533L13.2106 15.3334L11.0567 13.1839L9.53373 11.6639L3.63805 5.78007C3.04307 5.18628 3.04307 4.22399 3.63805 3.63054C3.71217 3.55623 3.79238 3.49138 3.87699 3.43565C4.04588 3.32452 4.23202 3.25022 4.42392 3.21306C4.52003 3.19448 4.61751 3.18536 4.71498 3.18536C5.10453 3.18536 5.49441 3.33364 5.7919 3.63054L11.6876 9.5144L13.2106 11.0343ZM34.882 1.95734H39.1042L52.0772 17.5783V1.95734H56.2994V22.9189H52.0772V22.703L39.1042 6.5037V22.9189H34.882V1.95734ZM58.7146 17.9299C58.7146 17.17 58.8789 16.4771 59.2074 15.8512C59.536 15.2254 60.0288 14.6867 60.6859 14.2352C61.3429 13.7837 62.1621 13.435 63.1433 13.1891C64.1245 12.9433 65.2677 12.8203 66.573 12.8203C67.5409 12.8203 68.5598 12.8918 69.6298 13.0349C70.6998 13.1779 71.803 13.397 72.9396 13.692C72.8952 13.1914 72.7443 12.7287 72.4868 12.304C72.2293 11.8793 71.8719 11.5127 71.4146 11.2043C70.9573 10.8958 70.4067 10.6567 69.763 10.4868C69.1192 10.3169 68.3889 10.232 67.5719 10.232C67.128 10.232 66.6396 10.2588 66.1068 10.3124C65.574 10.3661 65.0235 10.4466 64.4552 10.5538C63.8869 10.6611 63.3253 10.7952 62.7703 10.9562C62.2154 11.1171 61.6981 11.3093 61.2186 11.5329L60.0199 8.27396C60.6148 8.05938 61.2519 7.86269 61.9312 7.68387C62.6105 7.50506 63.3053 7.35083 64.0157 7.22119C64.726 7.09155 65.4364 6.99097 66.1468 6.91944C66.8571 6.84791 67.5453 6.81215 68.2113 6.81215C71.1504 6.81215 73.3348 7.56764 74.7644 9.07862C76.194 10.5896 76.9088 12.9053 76.9088 16.0256V22.9189H72.9663V21.4302C72.5578 21.6716 72.1116 21.8996 71.6277 22.1142C71.1437 22.3288 70.6176 22.5165 70.0493 22.6775C69.481 22.8384 68.8706 22.9658 68.2179 23.0597C67.5653 23.1536 66.8749 23.2005 66.1468 23.2005C64.9214 23.2005 63.8448 23.0664 62.9168 22.7982C61.9889 22.5299 61.2142 22.1589 60.5926 21.6851C59.9711 21.2112 59.5027 20.6546 59.1874 20.0154C58.8722 19.3761 58.7146 18.681 58.7146 17.9299ZM62.8702 17.7958C62.8702 18.0551 62.9368 18.3032 63.07 18.5401C63.2032 18.7771 63.4163 18.9872 63.7093 19.1705C64.0024 19.3538 64.3775 19.5013 64.8348 19.613C65.2921 19.7248 65.8449 19.7807 66.4931 19.7807C67.1857 19.7807 67.8561 19.7181 68.5043 19.5929C69.1525 19.4677 69.7563 19.3023 70.3157 19.0967C70.8751 18.8911 71.3813 18.6541 71.8341 18.3859C72.287 18.1177 72.6644 17.8405 72.9663 17.5544V16.8571C72.3624 16.6872 71.7653 16.5441 71.1748 16.4279C70.5843 16.3117 70.0205 16.22 69.4833 16.153C68.946 16.0859 68.4399 16.039 67.9649 16.0122C67.4898 15.9853 67.0747 15.9719 66.7195 15.9719C65.9825 15.9719 65.3698 16.0211 64.8814 16.1194C64.3931 16.2178 63.9979 16.3497 63.696 16.5151C63.3941 16.6805 63.181 16.8749 63.0567 17.0985C62.9324 17.322 62.8702 17.5544 62.8702 17.7958ZM81.0036 24.9037C81.4121 25.1719 81.8561 25.4089 82.3356 25.6145C82.8151 25.8201 83.3145 25.99 83.834 26.1241C84.3534 26.2582 84.884 26.3588 85.4257 26.4259C85.9673 26.4929 86.5045 26.5265 87.0373 26.5265C88.8487 26.5265 90.245 26.1353 91.2262 25.353C92.2074 24.5707 92.698 23.3972 92.698 21.8326V21.2961C92.3517 21.5375 91.9632 21.7588 91.5326 21.96C91.1019 22.1611 90.6402 22.3333 90.1473 22.4763C89.6545 22.6194 89.1351 22.7289 88.589 22.8049C88.0429 22.8809 87.4901 22.9189 86.9307 22.9189C85.732 22.9189 84.6598 22.7423 83.7141 22.3891C82.7684 22.036 81.9693 21.5174 81.3166 20.8334C80.664 20.1495 80.1645 19.3068 79.8182 18.3055C79.4719 17.3041 79.2988 16.1597 79.2988 14.8722V7.09378H83.228V13.7725C83.228 15.6858 83.5898 17.0962 84.3135 18.0037C85.0372 18.9112 86.1804 19.3649 87.7432 19.3649C88.8443 19.3649 89.8188 19.1705 90.6668 18.7815C91.5148 18.3926 92.1919 17.8942 92.698 17.2862V7.09378H96.6405V21.1084C96.6405 22.6194 96.4274 23.9314 96.0012 25.0445C95.575 26.1576 94.9556 27.0808 94.1431 27.8139C93.3307 28.5471 92.3339 29.0947 91.153 29.4568C89.972 29.8189 88.6312 29.9999 87.1305 29.9999C85.6654 29.9999 84.298 29.8435 83.0282 29.5305C81.7584 29.2176 80.5952 28.7929 79.5385 28.2565L81.0036 24.9037ZM99.7868 10.3929H107.845L98.2151 22.9189H114.624V19.6197H105.461L115.157 7.09378H99.7868V10.3929ZM117.463 15.8512C117.134 16.4771 116.97 17.17 116.97 17.9299C116.97 18.681 117.128 19.3761 117.443 20.0154C117.758 20.6546 118.227 21.2112 118.848 21.6851C119.47 22.1589 120.244 22.5299 121.172 22.7982C122.1 23.0664 123.177 23.2005 124.402 23.2005C125.13 23.2005 125.821 23.1536 126.473 23.0597C127.126 22.9658 127.737 22.8384 128.305 22.6775C128.873 22.5165 129.399 22.3288 129.883 22.1142C130.367 21.8996 130.813 21.6716 131.222 21.4302V22.9189H135.164V16.0256C135.164 12.9053 134.449 10.5896 133.02 9.07862C131.59 7.56764 129.406 6.81215 126.467 6.81215C125.801 6.81215 125.113 6.84791 124.402 6.91944C123.692 6.99097 122.982 7.09155 122.271 7.22119C121.561 7.35083 120.866 7.50506 120.187 7.68387C119.507 7.86269 118.87 8.05938 118.275 8.27396L119.474 11.5329C119.954 11.3093 120.471 11.1171 121.026 10.9562C121.581 10.7952 122.142 10.6611 122.711 10.5538C123.279 10.4466 123.83 10.3661 124.362 10.3124C124.895 10.2588 125.383 10.232 125.827 10.232C126.644 10.232 127.375 10.3169 128.018 10.4868C128.662 10.6567 129.213 10.8958 129.67 11.2043C130.127 11.5127 130.485 11.8793 130.742 12.304C131 12.7287 131.151 13.1914 131.195 13.692C130.059 13.397 128.955 13.1779 127.885 13.0349C126.815 12.8918 125.796 12.8203 124.828 12.8203C123.523 12.8203 122.38 12.9433 121.399 13.1891C120.418 13.435 119.598 13.7837 118.941 14.2352C118.284 14.6867 117.791 15.2254 117.463 15.8512ZM121.325 18.5401C121.192 18.3032 121.126 18.0551 121.126 17.7958C121.126 17.5544 121.188 17.322 121.312 17.0985C121.436 16.8749 121.65 16.6805 121.951 16.5151C122.253 16.3497 122.649 16.2178 123.137 16.1194C123.625 16.0211 124.238 15.9719 124.975 15.9719C125.33 15.9719 125.745 15.9853 126.22 16.0122C126.695 16.039 127.202 16.0859 127.739 16.153C128.276 16.22 128.84 16.3117 129.43 16.4279C130.021 16.5441 130.618 16.6872 131.222 16.8571V17.5544C130.92 17.8405 130.542 18.1177 130.09 18.3859C129.637 18.6541 129.131 18.8911 128.571 19.0967C128.012 19.3023 127.408 19.4677 126.76 19.5929C126.112 19.7181 125.441 19.7807 124.749 19.7807C124.1 19.7807 123.548 19.7248 123.09 19.613C122.633 19.5013 122.258 19.3538 121.965 19.1705C121.672 18.9872 121.459 18.7771 121.325 18.5401ZM142.095 1.95734H138.152V22.9189H142.095V19.1504L144.239 17.2192L150.086 22.9189H156L147.263 14.4967L155.481 7.09378H149.447L142.095 13.8127V1.95734Z" fill="#212121"/>
</svg>
