<svg width="24" height="24" viewBox="0 0 24 24" fill="none" xmlns="http://www.w3.org/2000/svg">
<path fill-rule="evenodd" clip-rule="evenodd" d="M11.9216 8.47059L12.5044 7.96439L13.4902 7.10822V1.36237C13.4902 0.610037 12.7878 0 11.9216 0C11.0553 0 10.3529 0.610037 10.3529 1.36237V7.10822L11.3387 7.96439L11.9216 8.47059ZM11.9216 15.5294L11.3387 16.0356L10.3529 16.8918V22.6376C10.3529 23.39 11.0553 24 11.9216 24C12.7878 24 13.4902 23.39 13.4902 22.6376V16.8918L12.5044 16.0356L11.9216 15.5294ZM16.0353 11.3387L16.8918 10.3529H22.6376C23.39 10.3529 24 11.0553 24 11.9216C24 12.7878 23.39 13.4902 22.6376 13.4902H16.8918L16.0353 12.5044L15.5294 11.9216L16.0353 11.3387ZM8.47059 11.9216L7.96439 11.3387L7.10822 10.3529H1.36237C0.610037 10.3529 0 11.0553 0 11.9216C0 12.7878 0.610037 13.4902 1.36237 13.4902H7.10822L7.96439 12.5044L8.47059 11.9216ZM9.35527 12.7059L11.2941 14.6447L10.7847 15.1541L5.47757 20.4612C5.20977 20.729 4.85911 20.8627 4.50814 20.8627C4.33266 20.8627 4.15748 20.8292 3.99236 20.7622C3.82723 20.6955 3.67277 20.595 3.53872 20.4612C3.00343 19.9259 3.00343 19.0577 3.53872 18.5224L8.84588 13.2153L9.35527 12.7059ZM12.7059 9.35529L14.6447 11.2941L15.1541 10.7847L20.4613 5.47762C20.9966 4.94234 20.9966 4.07438 20.4613 3.53879C20.3272 3.40505 20.1728 3.30451 20.0076 3.23779C19.8428 3.17077 19.6673 3.13725 19.4919 3.13725C19.1409 3.13725 18.7902 3.271 18.5224 3.53879L13.2153 8.8459L12.7059 9.35529ZM11.6863 9.78091L13.5916 11.6863L14.9389 13.0336L20.1543 18.2491C20.6806 18.7754 20.6806 19.6284 20.1543 20.1544C19.8914 20.4176 19.5465 20.549 19.2016 20.549C18.857 20.549 18.5121 20.4176 18.2489 20.1544L13.0335 14.9389L11.6863 13.5916L9.78095 11.6863L8.43368 10.339L3.21828 5.1235C2.69195 4.59716 2.69195 3.74417 3.21828 3.21813C3.28384 3.15227 3.3548 3.09478 3.42965 3.04538C3.57904 2.94688 3.74371 2.88101 3.91347 2.84808C3.99849 2.83161 4.08472 2.82353 4.17094 2.82353C4.51554 2.82353 4.86044 2.95496 5.12361 3.21813L10.339 8.43363L11.6863 9.78091Z" fill="#212121"/>
</svg>
